{"title":"Baadshah (2013) Telugu Movie HDRip XviD - Exclusive","uid":8368151,"size":766864810,"categoryP":"video","categoryS":"movies","magnet":"?xt=urn:btih:b85d3247107ef02855cf76caebce4a632edaa297&amp;dn=Baadshah+%282013%29+Telugu+Movie+HDRip+XviD+-+Exclusive&amp;tr=udp%3A%2F%2Ftracker.openbittorrent.com%3A80&amp;tr=udp%3A%2F%2Fopen.demonii.com%3A1337&amp;tr=udp%3A%2F%2Ftracker.coppersurfer.tk%3A6969&amp;tr=udp%3A%2F%2Fexodus.desync.com%3A6969","seeders":3,"leechers":0,"uploader":"tykoon123","files":-1,"time":1365830943,"description":" &lt;a href=&quot;http://www.shotpix.com/images/54189478150505324536.jpg&quot; rel=&quot;nofollow&quot; target=&quot;_NEW&quot;&gt;http://www.shotpix.com/images/54189478150505324536.jpg&lt;/a&gt;\n\nInfo:\nFormat : AVI\nFormat/Info : Audio Video Interleave\nFile size : 731 MiB\nDuration : 2h 39mn\nOverall bit rate : 642 Kbps\n\nVideo\nID : 0\nFormat : MPEG-4 Visual\nFormat profile : Advanced Simple@L5\nFormat settings, BVOP : 2\nFormat settings, QPel : No\nFormat settings, GMC : No warppoints\nFormat settings, Matrix : Default (H.263)\nCodec ID : XVID\nCodec ID/Hint : XviD\nDuration : 2h 39mn\nBit rate : 571 Kbps\nWidth : 608 pixels\nHeight : 256 pixels\nDisplay aspect ratio : 2.40:1\nFrame rate : 29.970 fps\nColor space : YUV\nChroma subsampling : 4:2:0\nBit depth : 8 bits\nScan type : Progressive\nCompression mode : Lossy\nBits/(Pixel*Frame) : 0.122\nStream size : 650 MiB (89%)\nWriting library : XviD 1.2.1 (UTC 2008-12-04)\n\nAudio\nID : 1\nFormat : MPEG Audio\nFormat version : Version 1\nFormat profile : Layer 2\nCodec ID : 50\nDuration : 2h 39mn\nBit rate mode : Constant\nBit rate : 64.0 Kbps\nChannel(s) : 2 channels\nSampling rate : 48.0 KHz\nCompression mode : Lossy\nStream size : 72.9 MiB (10%)\nAlignment : Aligned on interleaves\nInterleave, duration : 133 ms (4.00 video frames)\nInterleave, preload duration : 216 ms\n\nScreens: &lt;a href=&quot;\nhttp://www.shotpix.com/images/44327556965908155104.png&quot; rel=&quot;nofollow&quot; target=&quot;_NEW&quot;&gt;\nhttp://www.shotpix.com/images/44327556965908155104.png&lt;/a&gt; &lt;a href=&quot;\nhttp://www.shotpix.com/images/87779645194628021006.png&quot; rel=&quot;nofollow&quot; target=&quot;_NEW&quot;&gt;\nhttp://www.shotpix.com/images/87779645194628021006.png&lt;/a&gt; &lt;a href=&quot;\nhttp://www.shotpix.com/images/92292936528650629807.png&quot; rel=&quot;nofollow&quot; target=&quot;_NEW&quot;&gt;\nhttp://www.shotpix.com/images/92292936528650629807.png&lt;/a&gt; &lt;a href=&quot;\nhttp://www.shotpix.com/images/20754067546908024330.png&quot; rel=&quot;nofollow&quot; target=&quot;_NEW&quot;&gt;\nhttp://www.shotpix.com/images/20754067546908024330.png&lt;/a&gt; &lt;a href=&quot;\nhttp://www.shotpix.com/images/70480155052504350118.png&quot; rel=&quot;nofollow&quot; target=&quot;_NEW&quot;&gt;\nhttp://www.shotpix.com/images/70480155052504350118.png&lt;/a&gt; &lt;a href=&quot;\nhttp://www.shotpix.com/images/33954207768488872078.png&quot; rel=&quot;nofollow&quot; target=&quot;_NEW&quot;&gt;\nhttp://www.shotpix.com/images/33954207768488872078.png&lt;/a&gt;\n\n\n\n\n","torrent":{"xt":"urn:btih:b85d3247107ef02855cf76caebce4a632edaa297","amp;dn":"Baadshah+%282013%29+Telugu+Movie+HDRip+XviD+-+Exclusive","amp;tr":["udp%3A%2F%2Ftracker.openbittorrent.com%3A80","udp%3A%2F%2Fopen.demonii.com%3A1337","udp%3A%2F%2Ftracker.coppersurfer.tk%3A6969","udp%3A%2F%2Fexodus.desync.com%3A6969"],"infoHash":"b85d3247107ef02855cf76caebce4a632edaa297","infoHashBuffer":{"type":"Buffer","data":[184,93,50,71,16,126,240,40,85,207,118,202,235,206,74,99,46,218,162,151]},"announce":[],"urlList":[]}}